<?xml version="1.0" encoding="utf-8"?>
<!-- Generator: Adobe Illustrator 25.2.1, SVG Export Plug-In . SVG Version: 6.00 Build 0)  -->
<svg version="1.1" id="Layer_1" xmlns="http://www.w3.org/2000/svg" xmlns:xlink="http://www.w3.org/1999/xlink" x="0px" y="0px"
	 viewBox="0 0 79.3 16.5" style="enable-background:new 0 0 79.3 16.5;" xml:space="preserve">
<style type="text/css">
	.st0{fill:#E1E361;}
</style>
<g>
	<path class="st0" d="M9.1,9.2c0,2.3,0.7,3.6,0.9,4.2h0.2v0.3H6v-0.3h0.2c0.3-0.6,1-2.4,1-5.4c0-2.9-0.8-4.4-1-4.7H6V3.1h4.6
		c0.5,0,2.7,0,2.7,2.6c0,2.1-1.1,2.8-3.7,2.8H9.1V9.2z M9.4,8.3c1.5,0,1.6-0.9,1.6-2.5c0-1.1-0.2-2.4-1-2.4c-0.9,0-0.9,3.2-0.9,4.2
		v0.7H9.4z"/>
	<path class="st0" d="M18.6,13.4v0.3h-4v-0.3h0.3c0.3-0.5,0.4-1.7,0.4-2c0-0.3,0-0.4-0.1-0.8h-1.5c-0.1,0.3-0.1,0.6-0.1,0.8
		c0,0.6,0.2,1.6,0.4,2h0.3v0.3h-2.5v-0.3h0.3c1.2-1.6,2.1-6.5,3.1-10.3h0.6c0.4,2.9,1.2,7.6,2.6,10.3H18.6z M15.2,10.3
		c0-0.6-0.5-2.7-0.6-3.4h0c-0.2,0.7-0.7,2.9-0.7,3.4H15.2z"/>
	<path class="st0" d="M21.6,9.3c0,2.2,0.7,3.7,1,4.1h0.3v0.3h-4.1v-0.3H19c0.3-0.6,0.8-2.4,0.8-5.4c0-2.7-0.6-4.2-0.8-4.7h-0.2V3.1
		h4.5c0.8,0,2.4,0.3,2.4,2.7c0,1.4-0.7,2.3-2,2.6v0c1.5,0.5,2,1.1,2,3.6c0,0.4,0,0.8,0.3,0.8c0.1,0,0.3-0.1,0.3-0.3c0,0,0,0,0,0h0.1
		c0,0,0,0,0,0.1c0,0.2-0.1,1.1-1.6,1.1c-1.3,0-1.6-0.9-1.6-1.7c0-0.4,0.2-0.9,0.2-1.7c0-0.8-0.1-1.8-1.2-1.8h-0.6V9.3z M22,8.3
		c1.2,0,1.4-1.1,1.4-2.5c0-1.1-0.2-2.4-0.9-2.4c-0.8,0-0.8,3.2-0.8,4.2v0.7H22z"/>
	<path class="st0" d="M29.5,9.8L29.5,9.8c0.7-1.2,2.2-3.8,2.2-5.9c0-0.2,0-0.4,0-0.5h-0.4V3.1h3v0.3h-0.3c-1.4,1.2-2.1,2.7-2.9,4
		c0.6,1.3,2.4,4.7,3.4,6h0.2v0.3h-4v-0.3h0.2c0-0.1,0.1-0.4,0.1-0.7c0-1.2-1-3.5-1-3.5l-0.5,1c0,1,0.4,2.4,0.8,3.2h0.2v0.3h-4v-0.3
		h0.2c0.3-0.5,1-2.5,1-5.4c0-2.3-0.7-3.9-1-4.7h-0.2V3.1h4.1v0.3h-0.2c-0.5,1.1-0.9,3.7-0.9,4.8V9.8z"/>
</g>
<g>
	<path class="st0" d="M43.4,8.6c0.5,0.7,0.8,1.5,0.8,2.2c0,2.7-2.4,2.9-3.2,2.9c-1.2,0-3.4-1-3.4-5.3c0-4.6,2.4-5.3,3.2-5.3
		c0.6,0,1,0.2,1.3,0.6c0.3-0.3,1-0.4,1.5-0.4c0.1,0,0.1,0,0.1,0.1c-0.3,0.7-0.4,2-0.4,2.3c0,0.4,0,0.9,0.3,1.6c0,0,0,0,0,0
		c-2,0-1.8-3-1.8-3.3c0-0.3-0.3-0.5-0.7-0.5c-0.9,0-0.9,2.1-0.9,5.1c0,2.6,0.1,4.9,1,4.9c0.6,0,0.7-1,0.7-1.5c0-1.3-0.4-2.4-1.1-3.3
		h-0.3V8.3H44v0.3H43.4z"/>
	<path class="st0" d="M50.2,7.7c0-1.1-0.5-3.4-0.8-4.3H49V3.1h2.7v0.3h-0.2c-0.7,1.6-1,3.5-1,4.3v3.1c0,0.9-0.1,2.9-1.8,2.9
		c-0.7,0-2.9-0.1-2.9-2.7V7.2c0-1.4-0.4-2.9-0.9-3.9h-0.3V3.1h4.2v0.3h-0.2c-0.7,1-0.8,4.7-0.8,5.2c0,3.7,0.1,4.7,1.2,4.7
		c0.7,0,1.2-0.8,1.2-2.5V7.7z"/>
	<path class="st0" d="M55,8.5v0.9c0,3.6,0.6,4.1,0.9,4.1c0.2,0,0.4-0.3,0.4-0.7c0-1.2,0.3-2.8,1.9-3.2c0.1,0,0.1,0,0.1,0.1
		c-0.3,0.7-0.3,1.2-0.3,1.6c0,0.8,0.2,1.9,0.4,2.4c0,0,0,0.1,0,0.1H52v-0.3h0.2c0.2-0.5,1-2.3,1-5.2c0-2.5-0.8-4.4-1-4.8H52V3.1h6.2
		c0.1,0,0.1,0,0.1,0.1c-0.2,0.7-0.3,1.6-0.3,2c0,0.4,0.1,1.4,0.3,1.9c0,0.1,0,0.1-0.1,0.1c-2.1-0.5-2.1-2.4-2.1-3
		c0-0.4-0.1-0.8-0.3-0.8c-0.6,0-0.8,2.3-0.8,4.1v0.7h0.3c0.5,0,0.8-0.3,0.8-1c0-0.3-0.1-0.5-0.3-0.9c0,0,0-0.1,0-0.1l0.1-0.1
		c0,0,0.1,0,0.1,0c0.2,0.3,0.9,1,0.9,2.1c0,1.1-0.5,1.8-0.9,2.2c0,0-0.1,0.1-0.1,0l-0.1-0.1c0,0,0-0.1,0-0.1c0.3-0.4,0.2-1,0.1-1.2
		c-0.2-0.3-0.5-0.5-0.7-0.5H55z"/>
	<path class="st0" d="M59.3,13.6v-0.3h0.2c0.3-0.6,1-2.3,1-5.2c0-2.6-0.9-4.6-1-4.8h-0.2V3.1h4.3v0.3h-0.2c-0.1,0.2-1,2.2-1,4.8
		c0,1.5,0,5.2,0.9,5.2c0.4,0,0.5-1,0.5-1.5c0-1.4,1.2-2.3,2-2.3c0.1,0,0.1,0,0,0.1c-0.3,0.5-0.3,1.3-0.3,1.6c0,0.5,0.1,1.9,0.4,2.4
		c0,0,0,0.1,0,0.1H59.3z"/>
	<path class="st0" d="M66.2,13.6v-0.3h0.2c0.3-0.6,1-2.3,1-5.2c0-2.6-0.9-4.6-1-4.8h-0.2V3.1h4.3v0.3h-0.2c-0.1,0.2-1,2.2-1,4.8
		c0,1.5,0,5.2,0.9,5.2c0.4,0,0.5-1,0.5-1.5c0-1.4,1.2-2.3,2-2.3c0.1,0,0.1,0,0,0.1c-0.3,0.5-0.3,1.3-0.3,1.6c0,0.5,0.1,1.9,0.4,2.4
		c0,0,0,0.1,0,0.1H66.2z"/>
</g>
</svg>
