<?xml version="1.0" encoding="utf-8"?>
<!-- Generator: Adobe Illustrator 23.0.2, SVG Export Plug-In . SVG Version: 6.00 Build 0)  -->
<svg version="1.1" id="Ebene_1" xmlns="http://www.w3.org/2000/svg" xmlns:xlink="http://www.w3.org/1999/xlink" x="0px" y="0px"
	 viewBox="0 0 396.6 305.8" style="enable-background:new 0 0 396.6 305.8;" xml:space="preserve">
<style type="text/css">
	.st0{fill:#C9D642;}
</style>
<path class="st0" d="M265,105.6c0-4.9,5.7-10.2,11.6-10.2c5.9,0,11.6,5.2,11.6,10.2v31.5h-8.7v-31.5c0-0.9-1.7-2-2.9-2
	s-2.9,1.1-2.9,2v122.3c0,1.3,1.7,2.3,2.9,2.3s2.9-1,2.9-2.3v-36.4h8.7v36.4c0,6.6-5.5,10.6-11.6,10.6c-6,0-11.6-4.1-11.6-10.6V105.6
	z"/>
<path class="st0" d="M212.1,105.6c0-5.3,4.8-10.2,10.8-10.2s11.4,4.7,11.4,10.2v31.5h-8.8v-31.5c0-0.9-1.1-2-2.4-2
	c-1.2,0-2.7,1.1-2.7,2v23.2c0,8.3,4.2,21.6,7.6,33.1s6.9,26.5,6.9,34.8v31.1c0,7.1-5.4,10.6-11.5,10.6c-6,0-11.3-3.9-11.3-10.6
	v-36.4h8.3v36.4c0,1.2,1.2,2.3,3,2.3s2.8-1.1,2.8-2.3v-31.1c0-8.3-4-23.8-7.2-34.8s-6.9-24.8-6.9-33.1L212.1,105.6L212.1,105.6z"/>
<polygon class="st0" points="162,95.4 181.1,95.4 181.1,102.9 171.9,102.9 171.9,158.5 181.1,158.5 181.1,166.3 171.9,166.3 
	171.9,230.5 184.5,230.5 184.5,238.5 162,238.5 "/>
<polygon class="st0" points="108.2,95.4 118,95.4 124,162 124,95.4 131.4,95.4 131.4,238.5 124,238.5 115.3,153.3 115.3,238.5 
	108.2,238.5 "/>
<path class="st0" d="M54.5,95.4h8.9l0.1,132.5c0,1.3,1.1,2.3,2.7,2.3c1.4,0,2.6-1,2.6-2.3L68.5,95.4h9.1l0.1,132.5
	c0,6.5-5.3,10.6-11.6,10.6s-11.6-3.9-11.6-10.6V95.4z"/>
<rect y="292.7" class="st0" width="396.6" height="13.1"/>
<rect x="17.9" y="268.8" class="st0" width="361" height="13.9"/>
<rect x="36.4" y="245.7" class="st0" width="324.7" height="13.9"/>
<rect x="36.4" y="76.1" class="st0" width="324.7" height="13.4"/>
<polygon class="st0" points="63.6,64.9 198.3,23.3 331.1,64.9 292,64.9 198.3,35.9 103.1,64.9 "/>
<polygon class="st0" points="36.4,50.2 198.3,0 361.1,50.2 361.1,64.9 198.3,15.7 36.4,64.9 "/>
<path class="st0" d="M330.3,95.4c-6.2,0-11.5,5.2-11.5,10.2l0,0v121.5c0,6.7,5.3,10.6,11.4,10.6c6.1,0,11.8-4.1,11.8-10.6V105.6
	C341.9,100.7,336.5,95.4,330.3,95.4z M333.3,227.1c0,1-1.2,2.3-3.1,2.3c-1.9,0-3.1-1.4-3.1-2.3V105.6c0-0.8,1.1-2,3.1-2
	s3.1,1.1,3.1,2V227.1z"/>
</svg>
