<?xml version="1.0" encoding="utf-8"?>
<!-- Generator: Adobe Illustrator 25.2.1, SVG Export Plug-In . SVG Version: 6.00 Build 0)  -->
<svg version="1.1" id="Layer_1" xmlns="http://www.w3.org/2000/svg" xmlns:xlink="http://www.w3.org/1999/xlink" x="0px" y="0px"
	 viewBox="0 0 41.3 8.9" style="enable-background:new 0 0 41.3 8.9;" xml:space="preserve">
<style type="text/css">
	.st0{fill:#E1E361;}
</style>
<g>
	<path class="st0" d="M3.2,4.8c0,1.3,0.4,2,0.5,2.4h0.1v0.1H1.5V7.2h0.1c0.2-0.4,0.6-1.4,0.6-3.1c0-1.7-0.5-2.5-0.6-2.7H1.5V1.4h2.6
		c0.3,0,1.5,0,1.5,1.5c0,1.2-0.6,1.6-2.1,1.6H3.2V4.8z M3.4,4.3c0.9,0,0.9-0.5,0.9-1.4c0-0.6-0.1-1.4-0.6-1.4
		c-0.5,0-0.5,1.8-0.5,2.4v0.4H3.4z"/>
	<path class="st0" d="M8.7,7.2v0.1H6.4V7.2h0.1c0.2-0.3,0.2-1,0.2-1.2c0-0.2,0-0.2,0-0.5H5.9c0,0.2,0,0.3,0,0.4
		c0,0.3,0.1,0.9,0.2,1.2h0.1v0.1H4.8V7.2h0.1c0.7-0.9,1.2-3.7,1.8-5.9H7C7.2,3,7.7,5.7,8.5,7.2H8.7z M6.7,5.4c0-0.3-0.3-1.6-0.4-2h0
		c-0.1,0.4-0.4,1.7-0.4,2H6.7z"/>
	<path class="st0" d="M10.4,4.9c0,1.3,0.4,2.1,0.6,2.4h0.2v0.1H8.8V7.2h0.1C9,6.8,9.3,5.9,9.3,4.2c0-1.6-0.3-2.4-0.5-2.7H8.8V1.4
		h2.6c0.5,0,1.4,0.2,1.4,1.5c0,0.8-0.4,1.3-1.2,1.5v0c0.8,0.3,1.1,0.6,1.1,2.1c0,0.3,0,0.4,0.2,0.4c0.1,0,0.2-0.1,0.2-0.2
		c0,0,0,0,0,0h0.1c0,0,0,0,0,0c0,0.1,0,0.6-0.9,0.6c-0.7,0-0.9-0.5-0.9-1c0-0.2,0.1-0.5,0.1-1c0-0.5-0.1-1-0.7-1h-0.3V4.9z
		 M10.6,4.3c0.7,0,0.8-0.6,0.8-1.4c0-0.6-0.1-1.4-0.5-1.4c-0.5,0-0.5,1.8-0.5,2.4v0.4H10.6z"/>
	<path class="st0" d="M14.9,5.1L14.9,5.1c0.4-0.7,1.3-2.2,1.3-3.3c0-0.1,0-0.2,0-0.3h-0.2V1.4h1.7v0.1h-0.1
		c-0.8,0.7-1.2,1.6-1.6,2.3c0.3,0.7,1.4,2.7,1.9,3.4h0.1v0.1h-2.3V7.2h0.1c0,0,0.1-0.2,0.1-0.4c0-0.7-0.6-2-0.6-2l-0.3,0.6
		c0,0.6,0.2,1.3,0.5,1.8h0.1v0.1h-2.3V7.2h0.1c0.1-0.3,0.6-1.4,0.6-3.1c0-1.3-0.4-2.2-0.6-2.7h-0.1V1.4h2.3v0.1h-0.1
		c-0.3,0.6-0.5,2.1-0.5,2.7V5.1z"/>
</g>
<g>
	<path class="st0" d="M22.8,4.5c0.3,0.4,0.4,0.9,0.4,1.2c0,1.5-1.4,1.7-1.8,1.7c-0.7,0-2-0.6-2-3c0-2.6,1.4-3,1.8-3
		c0.3,0,0.5,0.1,0.7,0.3c0.2-0.1,0.6-0.2,0.9-0.3c0,0,0,0,0,0c-0.2,0.4-0.2,1.1-0.2,1.3c0,0.2,0,0.5,0.2,0.9c0,0,0,0,0,0
		c-1.2,0-1-1.7-1-1.9c0-0.2-0.2-0.3-0.4-0.3c-0.5,0-0.5,1.2-0.5,2.9c0,1.5,0.1,2.8,0.6,2.8c0.4,0,0.4-0.6,0.4-0.9
		c0-0.8-0.2-1.4-0.6-1.9h-0.2V4.3h2.1v0.1H22.8z"/>
	<path class="st0" d="M26.7,4c0-0.7-0.3-2-0.5-2.5H26V1.4h1.5v0.1h-0.1c-0.4,0.9-0.6,2-0.6,2.5v1.8c0,0.5,0,1.6-1.1,1.6
		c-0.4,0-1.6,0-1.6-1.5V3.7c0-0.8-0.2-1.6-0.5-2.2h-0.2V1.4h2.4v0.1h-0.1c-0.4,0.6-0.4,2.7-0.4,3c0,2.1,0,2.7,0.7,2.7
		c0.4,0,0.7-0.5,0.7-1.4V4z"/>
	<path class="st0" d="M29.4,4.4v0.5c0,2,0.4,2.3,0.5,2.3c0.1,0,0.2-0.1,0.2-0.4c0-0.7,0.2-1.6,1.1-1.8c0,0,0.1,0,0,0
		c-0.2,0.4-0.1,0.7-0.1,0.9c0,0.4,0.1,1.1,0.3,1.4c0,0,0,0,0,0h-3.7V7.2h0.1c0.1-0.3,0.6-1.3,0.6-2.9c0-1.4-0.5-2.5-0.6-2.8h-0.1
		V1.4h3.5c0,0,0,0,0,0c-0.1,0.4-0.2,0.9-0.2,1.1c0,0.2,0,0.8,0.2,1.1c0,0,0,0,0,0c-1.2-0.3-1.2-1.4-1.2-1.7c0-0.2,0-0.4-0.2-0.4
		c-0.4,0-0.5,1.3-0.5,2.3v0.4h0.2c0.3,0,0.5-0.2,0.5-0.6c0-0.2-0.1-0.3-0.2-0.5c0,0,0,0,0,0l0.1,0c0,0,0,0,0,0
		c0.1,0.2,0.5,0.6,0.5,1.2c0,0.6-0.3,1-0.5,1.2c0,0,0,0,0,0l-0.1-0.1c0,0,0,0,0-0.1c0.2-0.2,0.1-0.6,0.1-0.7
		c-0.1-0.2-0.3-0.3-0.4-0.3H29.4z"/>
	<path class="st0" d="M31.9,7.4V7.2H32c0.2-0.3,0.6-1.3,0.6-3c0-1.5-0.5-2.6-0.6-2.7h-0.1V1.4h2.4v0.1h-0.1
		c-0.1,0.1-0.6,1.3-0.6,2.7c0,0.9,0,3,0.5,3c0.2,0,0.3-0.6,0.3-0.9c0-0.8,0.7-1.3,1.2-1.3c0,0,0,0,0,0c-0.1,0.3-0.2,0.7-0.2,0.9
		c0,0.3,0,1.1,0.2,1.3c0,0,0,0,0,0H31.9z"/>
	<path class="st0" d="M35.8,7.4V7.2h0.1c0.2-0.3,0.6-1.3,0.6-3c0-1.5-0.5-2.6-0.6-2.7h-0.1V1.4h2.4v0.1h-0.1
		c-0.1,0.1-0.6,1.3-0.6,2.7c0,0.9,0,3,0.5,3c0.2,0,0.3-0.6,0.3-0.9c0-0.8,0.7-1.3,1.2-1.3c0,0,0,0,0,0c-0.1,0.3-0.2,0.7-0.2,0.9
		c0,0.3,0,1.1,0.2,1.3c0,0,0,0,0,0H35.8z"/>
</g>
</svg>
